<?xml version="1.0" encoding="UTF-8" standalone="no"?>
<svg
   xmlns:osb="http://www.openswatchbook.org/uri/2009/osb"
   xmlns:dc="http://purl.org/dc/elements/1.1/"
   xmlns:cc="http://creativecommons.org/ns#"
   xmlns:rdf="http://www.w3.org/1999/02/22-rdf-syntax-ns#"
   xmlns:svg="http://www.w3.org/2000/svg"
   xmlns="http://www.w3.org/2000/svg"
   xmlns:xlink="http://www.w3.org/1999/xlink"
   xmlns:sodipodi="http://sodipodi.sourceforge.net/DTD/sodipodi-0.dtd"
   xmlns:inkscape="http://www.inkscape.org/namespaces/inkscape"
   sodipodi:docname="compare_events.svg"
   inkscape:version="1.0 (4035a4fb49, 2020-05-01)"
   id="svg8"
   version="1.1"
   viewBox="0 0 5.6618609 5.2062693"
   height="5.2062693mm"
   width="5.6618609mm">
  <defs
     id="defs2">
    <marker
       inkscape:isstock="true"
       style="overflow:visible"
       id="TriangleOutS"
       refX="0.0"
       refY="0.0"
       orient="auto"
       inkscape:stockid="TriangleOutS">
      <path
         transform="scale(0.2)"
         style="fill-rule:evenodd;stroke:#4076e9;stroke-width:1pt;stroke-opacity:1;fill:#4076e9;fill-opacity:1"
         d="M 5.77,0.0 L -2.88,5.0 L -2.88,-5.0 L 5.77,0.0 z "
         id="path1403" />
    </marker>
    <marker
       inkscape:isstock="true"
       style="overflow:visible;"
       id="marker2087"
       refX="0.0"
       refY="0.0"
       orient="auto"
       inkscape:stockid="Arrow2Send">
      <path
         transform="scale(0.3) rotate(180) translate(-2.3,0)"
         d="M 8.7185878,4.0337352 L -2.2072895,0.016013256 L 8.7185884,-4.0017078 C 6.9730900,-1.6296469 6.9831476,1.6157441 8.7185878,4.0337352 z "
         style="fill-rule:evenodd;stroke-width:0.625;stroke-linejoin:round;stroke:#000000;stroke-opacity:1;fill:#000000;fill-opacity:1"
         id="path2085" />
    </marker>
    <marker
       inkscape:isstock="true"
       style="overflow:visible;"
       id="marker1930"
       refX="0.0"
       refY="0.0"
       orient="auto"
       inkscape:stockid="Arrow2Send">
      <path
         transform="scale(0.3) rotate(180) translate(-2.3,0)"
         d="M 8.7185878,4.0337352 L -2.2072895,0.016013256 L 8.7185884,-4.0017078 C 6.9730900,-1.6296469 6.9831476,1.6157441 8.7185878,4.0337352 z "
         style="fill-rule:evenodd;stroke-width:0.625;stroke-linejoin:round;stroke:#000000;stroke-opacity:1;fill:#000000;fill-opacity:1"
         id="path1288" />
    </marker>
    <marker
       inkscape:isstock="true"
       style="overflow:visible"
       id="TriangleInS"
       refX="0.0"
       refY="0.0"
       orient="auto"
       inkscape:stockid="TriangleInS">
      <path
         transform="scale(-0.2)"
         style="fill-rule:evenodd;stroke:#4076e9;stroke-width:1pt;stroke-opacity:1;fill:#4076e9;fill-opacity:1"
         d="M 5.77,0.0 L -2.88,5.0 L -2.88,-5.0 L 5.77,0.0 z "
         id="path1394" />
    </marker>
    <marker
       inkscape:isstock="true"
       style="overflow:visible"
       id="marker1649"
       refX="0.0"
       refY="0.0"
       orient="auto"
       inkscape:stockid="Arrow2Mstart">
      <path
         transform="scale(0.6) translate(0,0)"
         d="M 8.7185878,4.0337352 L -2.2072895,0.016013256 L 8.7185884,-4.0017078 C 6.9730900,-1.6296469 6.9831476,1.6157441 8.7185878,4.0337352 z "
         style="fill-rule:evenodd;stroke-width:0.625;stroke-linejoin:round;stroke:#000000;stroke-opacity:1;fill:#000000;fill-opacity:1"
         id="path1279" />
    </marker>
    <marker
       inkscape:isstock="true"
       style="overflow:visible"
       id="Arrow2Lstart"
       refX="0.0"
       refY="0.0"
       orient="auto"
       inkscape:stockid="Arrow2Lstart">
      <path
         transform="scale(1.1) translate(1,0)"
         d="M 8.7185878,4.0337352 L -2.2072895,0.016013256 L 8.7185884,-4.0017078 C 6.9730900,-1.6296469 6.9831476,1.6157441 8.7185878,4.0337352 z "
         style="fill-rule:evenodd;stroke-width:0.625;stroke-linejoin:round;stroke:#000000;stroke-opacity:1;fill:#000000;fill-opacity:1"
         id="path1273" />
    </marker>
    <linearGradient
       inkscape:collect="always"
       id="Blue">
      <stop
         style="stop-color:#020467;stop-opacity:1"
         offset="0"
         id="stop8403" />
      <stop
         style="stop-color:#476beb;stop-opacity:1"
         offset="1"
         id="stop8405" />
    </linearGradient>
    <marker
       inkscape:stockid="Arrow2Send"
       orient="auto"
       refY="0.0"
       refX="0.0"
       id="Arrow2Send"
       style="overflow:visible;"
       inkscape:isstock="true">
      <path
         id="path7060"
         style="fill-rule:evenodd;stroke-width:0.625;stroke-linejoin:round;stroke:#000000;stroke-opacity:1;fill:#000000;fill-opacity:1"
         d="M 8.7185878,4.0337352 L -2.2072895,0.016013256 L 8.7185884,-4.0017078 C 6.9730900,-1.6296469 6.9831476,1.6157441 8.7185878,4.0337352 z "
         transform="scale(0.3) rotate(180) translate(-2.3,0)" />
    </marker>
    <marker
       inkscape:stockid="Arrow2Mend"
       orient="auto"
       refY="0.0"
       refX="0.0"
       id="marker8065"
       style="overflow:visible;"
       inkscape:isstock="true">
      <path
         id="path7054"
         style="fill-rule:evenodd;stroke-width:0.625;stroke-linejoin:round;stroke:#000000;stroke-opacity:1;fill:#000000;fill-opacity:1"
         d="M 8.7185878,4.0337352 L -2.2072895,0.016013256 L 8.7185884,-4.0017078 C 6.9730900,-1.6296469 6.9831476,1.6157441 8.7185878,4.0337352 z "
         transform="scale(0.6) rotate(180) translate(0,0)" />
    </marker>
    <marker
       inkscape:stockid="Arrow1Send"
       orient="auto"
       refY="0.0"
       refX="0.0"
       id="Arrow1Send"
       style="overflow:visible;"
       inkscape:isstock="true">
      <path
         id="path7042"
         d="M 0.0,0.0 L 5.0,-5.0 L -12.5,0.0 L 5.0,5.0 L 0.0,0.0 z "
         style="fill-rule:evenodd;stroke:#000000;stroke-width:1pt;stroke-opacity:1;fill:#000000;fill-opacity:1"
         transform="scale(0.2) rotate(180) translate(6,0)" />
    </marker>
    <marker
       inkscape:stockid="Arrow1Sstart"
       orient="auto"
       refY="0.0"
       refX="0.0"
       id="Arrow1Sstart"
       style="overflow:visible"
       inkscape:isstock="true">
      <path
         id="path7039"
         d="M 0.0,0.0 L 5.0,-5.0 L -12.5,0.0 L 5.0,5.0 L 0.0,0.0 z "
         style="fill-rule:evenodd;stroke:#000000;stroke-width:1pt;stroke-opacity:1;fill:#000000;fill-opacity:1"
         transform="scale(0.2) translate(6,0)" />
    </marker>
    <marker
       inkscape:stockid="Arrow1Mend"
       orient="auto"
       refY="0.0"
       refX="0.0"
       id="marker7734"
       style="overflow:visible;"
       inkscape:isstock="true">
      <path
         id="path7732"
         d="M 0.0,0.0 L 5.0,-5.0 L -12.5,0.0 L 5.0,5.0 L 0.0,0.0 z "
         style="fill-rule:evenodd;stroke:#000000;stroke-width:1pt;stroke-opacity:1;fill:#000000;fill-opacity:1"
         transform="scale(0.4) rotate(180) translate(10,0)" />
    </marker>
    <marker
       inkscape:stockid="Arrow1Mend"
       orient="auto"
       refY="0.0"
       refX="0.0"
       id="marker7634"
       style="overflow:visible;"
       inkscape:isstock="true">
      <path
         id="path7632"
         d="M 0.0,0.0 L 5.0,-5.0 L -12.5,0.0 L 5.0,5.0 L 0.0,0.0 z "
         style="fill-rule:evenodd;stroke:#000000;stroke-width:1pt;stroke-opacity:1;fill:#000000;fill-opacity:1"
         transform="scale(0.4) rotate(180) translate(10,0)" />
    </marker>
    <marker
       inkscape:isstock="true"
       style="overflow:visible;"
       id="marker7528"
       refX="0.0"
       refY="0.0"
       orient="auto"
       inkscape:stockid="Arrow1Mend">
      <path
         transform="scale(0.4) rotate(180) translate(10,0)"
         style="fill-rule:evenodd;stroke:#000000;stroke-width:1pt;stroke-opacity:1;fill:#000000;fill-opacity:1"
         d="M 0.0,0.0 L 5.0,-5.0 L -12.5,0.0 L 5.0,5.0 L 0.0,0.0 z "
         id="path7526" />
    </marker>
    <marker
       inkscape:stockid="Arrow1Mend"
       orient="auto"
       refY="0.0"
       refX="0.0"
       id="marker7290"
       style="overflow:visible;"
       inkscape:isstock="true">
      <path
         id="path7036"
         d="M 0.0,0.0 L 5.0,-5.0 L -12.5,0.0 L 5.0,5.0 L 0.0,0.0 z "
         style="fill-rule:evenodd;stroke:#241f20;stroke-width:1pt;stroke-opacity:1;fill:#241f20;fill-opacity:1"
         transform="scale(0.4) rotate(180) translate(10,0)" />
    </marker>
    <linearGradient
       id="linearGradient5900"
       osb:paint="gradient">
      <stop
         id="stop5906"
         offset="0"
         style="stop-color:#00ff00;stop-opacity:1;" />
      <stop
         id="stop5908"
         offset="1"
         style="stop-color:#00ff00;stop-opacity:0;" />
    </linearGradient>
    <marker
       inkscape:isstock="true"
       style="overflow:visible"
       id="Arrow2Mend"
       refX="0"
       refY="0"
       orient="auto"
       inkscape:stockid="Arrow2Mend">
      <path
         transform="scale(-0.6)"
         d="M 8.7185878,4.0337352 -2.2072895,0.01601326 8.7185884,-4.0017078 c -1.7454984,2.3720609 -1.7354408,5.6174519 -6e-7,8.035443 z"
         style="fill:#000000;fill-opacity:1;fill-rule:evenodd;stroke:#000000;stroke-width:0.625;stroke-linejoin:round;stroke-opacity:1"
         id="path870" />
    </marker>
    <marker
       inkscape:isstock="true"
       style="overflow:visible"
       id="marker1266"
       refX="0"
       refY="0"
       orient="auto"
       inkscape:stockid="Arrow1Mend">
      <path
         transform="matrix(-0.4,0,0,-0.4,-4,0)"
         style="fill:#000000;fill-opacity:1;fill-rule:evenodd;stroke:#000000;stroke-width:1pt;stroke-opacity:1"
         d="M 0,0 5,-5 -12.5,0 5,5 Z"
         id="path1264" />
    </marker>
    <marker
       inkscape:isstock="true"
       style="overflow:visible"
       id="Arrow1Mend"
       refX="0"
       refY="0"
       orient="auto"
       inkscape:stockid="Arrow1Mend">
      <path
         transform="matrix(-0.4,0,0,-0.4,-4,0)"
         style="fill:#000000;fill-opacity:1;fill-rule:evenodd;stroke:#000000;stroke-width:1pt;stroke-opacity:1"
         d="M 0,0 5,-5 -12.5,0 5,5 Z"
         id="path852" />
    </marker>
    <marker
       inkscape:isstock="true"
       style="overflow:visible"
       id="Arrow1Lstart"
       refX="0"
       refY="0"
       orient="auto"
       inkscape:stockid="Arrow1Lstart">
      <path
         transform="matrix(0.8,0,0,0.8,10,0)"
         style="fill:#000000;fill-opacity:1;fill-rule:evenodd;stroke:#000000;stroke-width:1pt;stroke-opacity:1"
         d="M 0,0 5,-5 -12.5,0 5,5 Z"
         id="path843" />
    </marker>
    <symbol
       id="FirstAid">
      <title
         id="title3423">First Aid</title>
      <path
         id="path3425"
         style="stroke:none;stroke-width:1"
         d="m 11.641667,3.4395833 v 3.96875 h 3.96875 v 4.2333337 h -3.96875 v 3.96875 H 7.4083333 v -3.96875 h -3.96875 V 7.4083333 h 3.96875 v -3.96875 z" />
    </symbol>
    <marker
       inkscape:stockid="Arrow2Mstart"
       orient="auto"
       refY="0"
       refX="0"
       id="Arrow2Mstart"
       style="overflow:visible"
       inkscape:isstock="true">
      <path
         id="path4908"
         style="fill:#000000;fill-opacity:1;fill-rule:evenodd;stroke:#000000;stroke-width:0.625;stroke-linejoin:round;stroke-opacity:1"
         d="M 8.7185878,4.0337352 -2.2072895,0.01601326 8.7185884,-4.0017078 c -1.7454984,2.3720609 -1.7354408,5.6174519 -6e-7,8.035443 z"
         transform="scale(0.6)" />
    </marker>
    <marker
       style="overflow:visible"
       id="marker1455-3-7"
       refX="0"
       refY="0"
       orient="auto">
      <path
         transform="matrix(-0.8,0,0,-0.8,-10,0)"
         style="fill:#000000;fill-opacity:1;fill-rule:evenodd;stroke:#000000;stroke-width:1pt;stroke-opacity:1"
         d="M 0,0 5,-5 -12.5,0 5,5 Z"
         id="path1453-5-2" />
    </marker>
    <marker
       style="overflow:visible"
       id="marker1485-7-9"
       refX="0"
       refY="0"
       orient="auto">
      <path
         transform="matrix(-0.8,0,0,-0.8,-10,0)"
         style="fill:#000000;fill-opacity:1;fill-rule:evenodd;stroke:#000000;stroke-width:1pt;stroke-opacity:1"
         d="M 0,0 5,-5 -12.5,0 5,5 Z"
         id="path1483-7-4" />
    </marker>
    <marker
       style="overflow:visible"
       id="marker1465-9-90"
       refX="0"
       refY="0"
       orient="auto">
      <path
         transform="matrix(-0.8,0,0,-0.8,-10,0)"
         style="fill:#000000;fill-opacity:1;fill-rule:evenodd;stroke:#000000;stroke-width:1pt;stroke-opacity:1"
         d="M 0,0 5,-5 -12.5,0 5,5 Z"
         id="path1463-5-9" />
    </marker>
    <marker
       style="overflow:visible"
       id="marker1475-3-18"
       refX="0"
       refY="0"
       orient="auto">
      <path
         transform="matrix(-0.8,0,0,-0.8,-10,0)"
         style="fill:#000000;fill-opacity:1;fill-rule:evenodd;stroke:#000000;stroke-width:1pt;stroke-opacity:1"
         d="M 0,0 5,-5 -12.5,0 5,5 Z"
         id="path1473-2-7" />
    </marker>
    <marker
       orient="auto"
       refY="0"
       refX="0"
       id="marker1455-3-7-8"
       style="overflow:visible">
      <path
         id="path1453-5-2-7"
         d="M 0,0 5,-5 -12.5,0 5,5 Z"
         style="fill:#000000;fill-opacity:1;fill-rule:evenodd;stroke:#000000;stroke-width:1pt;stroke-opacity:1"
         transform="matrix(-0.8,0,0,-0.8,-10,0)" />
    </marker>
    <marker
       style="overflow:visible"
       id="marker1455-3-7-8-0"
       refX="0"
       refY="0"
       orient="auto">
      <path
         transform="matrix(-0.8,0,0,-0.8,-10,0)"
         style="fill:#000000;fill-opacity:1;fill-rule:evenodd;stroke:#000000;stroke-width:1pt;stroke-opacity:1"
         d="M 0,0 5,-5 -12.5,0 5,5 Z"
         id="path1453-5-2-7-1" />
    </marker>
    <linearGradient
       inkscape:collect="always"
       xlink:href="#Blue"
       id="linearGradient8409"
       x1="4.8628378"
       y1="3.7749786"
       x2="6.451002"
       y2="3.7749786"
       gradientUnits="userSpaceOnUse"
       gradientTransform="translate(-0.08185129,0.15785606)" />
    <linearGradient
       inkscape:collect="always"
       xlink:href="#Blue"
       id="linearGradient8433"
       x1="4.0175653"
       y1="4.327095"
       x2="6.5064197"
       y2="4.2725992"
       gradientUnits="userSpaceOnUse" />
    <marker
       inkscape:stockid="TriangleInS"
       orient="auto"
       refY="0"
       refX="0"
       id="TriangleInS-5"
       style="overflow:visible"
       inkscape:isstock="true">
      <path
         id="path1394-9"
         d="M 5.77,0 -2.88,5 V -5 Z"
         style="fill:#241f20;fill-opacity:1;fill-rule:evenodd;stroke:#241f20;stroke-width:1pt;stroke-opacity:1"
         transform="scale(-0.2)" />
    </marker>
    <marker
       inkscape:stockid="TriangleOutS"
       orient="auto"
       refY="0"
       refX="0"
       id="TriangleOutS-9"
       style="overflow:visible"
       inkscape:isstock="true">
      <path
         id="path1403-2"
         d="M 5.77,0 -2.88,5 V -5 Z"
         style="fill:#241f20;fill-opacity:1;fill-rule:evenodd;stroke:#241f20;stroke-width:1pt;stroke-opacity:1"
         transform="scale(0.2)" />
    </marker>
    <marker
       inkscape:isstock="true"
       style="overflow:visible"
       id="TriangleInS-5-1"
       refX="0"
       refY="0"
       orient="auto"
       inkscape:stockid="TriangleInS">
      <path
         transform="scale(-0.2)"
         style="fill:#241f20;fill-opacity:1;fill-rule:evenodd;stroke:#241f20;stroke-width:1pt;stroke-opacity:1"
         d="M 5.77,0 -2.88,5 V -5 Z"
         id="path1394-9-1" />
    </marker>
    <marker
       inkscape:isstock="true"
       style="overflow:visible"
       id="TriangleOutS-9-8"
       refX="0"
       refY="0"
       orient="auto"
       inkscape:stockid="TriangleOutS">
      <path
         transform="scale(0.2)"
         style="fill:#241f20;fill-opacity:1;fill-rule:evenodd;stroke:#241f20;stroke-width:1pt;stroke-opacity:1"
         d="M 5.77,0 -2.88,5 V -5 Z"
         id="path1403-2-7" />
    </marker>
    <filter
       height="2.0797114"
       y="-0.53985572"
       width="1.0066369"
       x="-0.0033184256"
       id="filter9706"
       style="color-interpolation-filters:sRGB"
       inkscape:collect="always">
      <feGaussianBlur
         id="feGaussianBlur9708"
         stdDeviation="0.0027894795"
         inkscape:collect="always" />
    </filter>
    <filter
       height="3.7199999"
       y="-1.36"
       width="1.3371901"
       x="-0.16859504"
       id="filter9727"
       style="color-interpolation-filters:sRGB"
       inkscape:collect="always">
      <feGaussianBlur
         id="feGaussianBlur9729"
         stdDeviation="0.10541992"
         inkscape:collect="always" />
    </filter>
  </defs>
  <sodipodi:namedview
     inkscape:window-maximized="1"
     inkscape:window-y="-12"
     inkscape:window-x="-12"
     inkscape:window-height="2050"
     inkscape:window-width="3840"
     inkscape:snap-grids="true"
     inkscape:snap-page="true"
     inkscape:snap-text-baseline="true"
     inkscape:snap-center="true"
     inkscape:snap-object-midpoints="true"
     inkscape:snap-midpoints="true"
     inkscape:snap-smooth-nodes="true"
     inkscape:snap-intersection-paths="true"
     inkscape:object-paths="true"
     inkscape:snap-bbox-midpoints="true"
     inkscape:snap-bbox-edge-midpoints="true"
     inkscape:bbox-paths="true"
     inkscape:bbox-nodes="true"
     inkscape:snap-bbox="true"
     showgrid="false"
     inkscape:document-rotation="0"
     inkscape:current-layer="layer1"
     inkscape:document-units="mm"
     inkscape:cy="13.934188"
     inkscape:cx="55.973882"
     inkscape:zoom="22.627417"
     inkscape:pageshadow="2"
     inkscape:pageopacity="0.0"
     borderopacity="1.0"
     bordercolor="#666666"
     pagecolor="#ffffff"
     id="base"
     inkscape:snap-global="false" />
  <metadata
     id="metadata5">
    <rdf:RDF>
      <cc:Work
         rdf:about="">
        <dc:format>image/svg+xml</dc:format>
        <dc:type
           rdf:resource="http://purl.org/dc/dcmitype/StillImage" />
        <dc:title />
      </cc:Work>
    </rdf:RDF>
  </metadata>
  <g
     transform="translate(-1.1218704,-0.22772141)"
     id="layer1"
     inkscape:groupmode="layer"
     inkscape:label="Layer 1">
    <rect
       transform="matrix(1.8209366,0,0,1.3777779,-2.1900323,-1.7093576)"
       y="4.3825064"
       x="2.5770786"
       height="0.18603516"
       width="1.5006835"
       id="rect9725"
       style="opacity:1;fill:#241f20;fill-opacity:1;stroke:none;stroke-width:0.230439;stroke-linecap:round;stroke-miterlimit:4;stroke-dasharray:none;stroke-opacity:1;filter:url(#filter9727);stop-color:#000000" />
    <path
       transform="matrix(1.2835819,0,0,-1.9324962,-5.7003194,14.799906)"
       id="path1247-8-2"
       d="m 6.4933444,5.4339907 c 2.0174479,0.012401 2.0174479,0.012401 2.0174479,0.012401"
       style="opacity:0.5;fill:none;fill-opacity:1;stroke:#241f20;stroke-width:0.231752;stroke-linecap:butt;stroke-linejoin:miter;stroke-miterlimit:4;stroke-dasharray:none;stroke-opacity:1;marker-start:url(#TriangleInS-5-1);marker-end:url(#TriangleOutS-9-8);filter:url(#filter9706)" />
    <path
       style="fill:#241f20;fill-opacity:1;stroke:#241f20;stroke-width:0.365;stroke-linecap:butt;stroke-linejoin:miter;stroke-miterlimit:4;stroke-dasharray:none;stroke-opacity:1;marker-start:url(#TriangleInS-5);marker-end:url(#TriangleOutS-9)"
       d="m 2.9078079,4.2640205 c 2.0174479,0.012401 2.0174479,0.012401 2.0174479,0.012401"
       id="path1247-8" />
    <path
       style="fill:#241f20;stroke-width:0.264582"
       inkscape:connector-curvature="0"
       d="m 3.2452156,2.2541002 c 0,-0.5841275 -0.4735824,-1.057492 -1.0573187,-1.057492 -0.5759306,0 -1.0434407,0.4605717 -1.0564504,1.0333362 -4.923e-4,-1.291e-4 -8.214e-4,-1.291e-4 -0.00128,-1.291e-4 0,0.00519 4.921e-4,0.010413 4.921e-4,0.015569 0,0.00289 -4.921e-4,0.00578 -4.921e-4,0.00872 0,0.010547 0.00128,0.020643 0.0017,0.031049 0.011706,0.6871274 0.7884359,1.4122456 1.0560177,1.6703291 C 2.9385883,3.3467222 3.157164,2.7820675 3.2204816,2.481005 c 0.00213,-0.010547 0.00433,-0.021076 0.00603,-0.031618 0.00603,-0.032443 0.010413,-0.061452 0.013436,-0.086389 0,-3.294e-4 0,-6.57e-4 0,-0.00102 0.00783,-0.069648 0.00519,-0.107986 0.00519,-0.107986 z M 3.0938594,2.3676824 c 0,1.656e-4 0,4.923e-4 0,8.214e-4 -0.00264,0.021468 -0.00603,0.046489 -0.01127,0.074376 -0.0017,0.00907 -0.00349,0.018169 -0.00561,0.027274 C 3.0227656,2.7294499 2.8345463,3.2158685 2.1879249,3.7401906 1.9576403,3.5178418 1.2884676,2.8933383 1.2780595,2.3014061 c 0,-0.00899 -0.00128,-0.01765 -0.00128,-0.026756 0,-0.00247 4.921e-4,-0.00502 4.921e-4,-0.00747 0,-0.00442 -4.921e-4,-0.00894 -4.921e-4,-0.013386 4.921e-4,0 8.215e-4,0 0.00128,8.66e-5 0.010833,-0.4933578 0.4137326,-0.8900473 0.9098654,-0.8900473 0.5030723,0 0.9107336,0.4077915 0.9107336,0.9108644 0,4.25e-5 0.00213,0.033132 -0.00475,0.093067 z"
       id="path291-5" />
    <path
       id="path291-5-6"
       d="m 6.7835425,2.2375645 c 0,-0.5841275 -0.4735824,-1.057492 -1.0573187,-1.057492 -0.5759306,0 -1.0434407,0.4605717 -1.0564504,1.0333362 -4.923e-4,-1.291e-4 -8.214e-4,-1.291e-4 -0.00128,-1.291e-4 0,0.00519 4.921e-4,0.010413 4.921e-4,0.015569 0,0.00289 -4.921e-4,0.00578 -4.921e-4,0.00872 0,0.010547 0.00128,0.020643 0.0017,0.031049 0.011706,0.6871274 0.7884359,1.4122456 1.0560177,1.6703291 0.7507041,-0.6087602 0.9692798,-1.1734149 1.0325974,-1.4744774 0.00213,-0.010547 0.00433,-0.021076 0.00603,-0.031618 0.00603,-0.032443 0.010413,-0.061452 0.013436,-0.086389 0,-3.281e-4 0,-6.562e-4 0,-0.00102 0.00783,-0.069648 0.00519,-0.107986 0.00519,-0.107986 z M 6.6321863,2.3511467 c 0,1.656e-4 0,4.922e-4 0,8.202e-4 -0.00264,0.021468 -0.00603,0.046489 -0.01127,0.074376 -0.0017,0.00907 -0.00349,0.018169 -0.00561,0.027274 C 6.5610925,2.7129142 6.3728732,3.1993328 5.7262518,3.7236549 5.4959672,3.5013061 4.8267945,2.8768026 4.8163864,2.2848704 c 0,-0.00899 -0.00128,-0.01765 -0.00128,-0.026756 0,-0.00247 4.922e-4,-0.00502 4.922e-4,-0.00747 0,-0.00442 -4.922e-4,-0.00894 -4.922e-4,-0.013386 4.922e-4,0 8.216e-4,0 0.00128,8.66e-5 0.010833,-0.4933578 0.4137326,-0.8900473 0.9098654,-0.8900473 0.5030723,0 0.9107336,0.4077915 0.9107336,0.9108644 0,4.25e-5 0.00213,0.033132 -0.00475,0.093067 z"
       inkscape:connector-curvature="0"
       style="fill:#241f20;stroke-width:0.264582" />
    <path
       id="path1247"
       d="m 2.9078079,4.2640205 c 2.0174479,0.012401 2.0174479,0.012401 2.0174479,0.012401"
       style="fill:none;stroke:#4076e9;stroke-width:0.265;stroke-linecap:butt;stroke-linejoin:miter;stroke-miterlimit:4;stroke-dasharray:none;stroke-opacity:1;marker-start:url(#TriangleInS);marker-end:url(#TriangleOutS);fill-opacity:1" />
    <text
       id="text9745"
       y="3.6838412"
       x="3.1806593"
       style="font-size:1.41111px;line-height:1.25;font-family:sans-serif;-inkscape-font-specification:'sans-serif, Normal';stroke-width:0.264583"
       xml:space="preserve"><tspan
         style="font-size:1.41111px;stroke-width:0.264583"
         y="3.6838412"
         x="3.1806593"
         id="tspan9743"
         sodipodi:role="line">vs</tspan></text>
  </g>
</svg>
