<?xml version="1.0" encoding="UTF-8" standalone="no"?>
<svg
   xmlns:osb="http://www.openswatchbook.org/uri/2009/osb"
   xmlns:dc="http://purl.org/dc/elements/1.1/"
   xmlns:cc="http://creativecommons.org/ns#"
   xmlns:rdf="http://www.w3.org/1999/02/22-rdf-syntax-ns#"
   xmlns:svg="http://www.w3.org/2000/svg"
   xmlns="http://www.w3.org/2000/svg"
   xmlns:sodipodi="http://sodipodi.sourceforge.net/DTD/sodipodi-0.dtd"
   xmlns:inkscape="http://www.inkscape.org/namespaces/inkscape"
   width="5.6618609mm"
   height="5.2062693mm"
   viewBox="0 0 5.6618609 5.2062693"
   version="1.1"
   id="svg8"
   sodipodi:docname="search_highlight.svg"
   inkscape:version="1.0 (4035a4fb49, 2020-05-01)">
  <sodipodi:namedview
     inkscape:snap-global="false"
     inkscape:document-rotation="0"
     pagecolor="#ffffff"
     bordercolor="#666666"
     borderopacity="1"
     objecttolerance="10"
     gridtolerance="10"
     guidetolerance="10"
     inkscape:pageopacity="0"
     inkscape:pageshadow="2"
     inkscape:window-width="3840"
     inkscape:window-height="2050"
     id="namedview25"
     showgrid="false"
     inkscape:zoom="16"
     inkscape:cx="-58.819031"
     inkscape:cy="15.938498"
     inkscape:window-x="-12"
     inkscape:window-y="-12"
     inkscape:window-maximized="1"
     inkscape:current-layer="svg8" />
  <defs
     id="defs2">
    <marker
       orient="auto"
       refY="0.0"
       refX="0.0"
       id="TriangleInS"
       style="overflow:visible">
      <path
         id="path1058"
         d="M 5.77,0.0 L -2.88,5.0 L -2.88,-5.0 L 5.77,0.0 z "
         style="fill-rule:evenodd;stroke:#000000;stroke-width:1pt;stroke-opacity:1;fill:#000000;fill-opacity:1"
         transform="scale(-0.2)" />
    </marker>
    <linearGradient
       osb:paint="gradient"
       id="linearGradient5900">
      <stop
         style="stop-color:#00ff00;stop-opacity:1;"
         offset="0"
         id="stop5906" />
      <stop
         style="stop-color:#00ff00;stop-opacity:0;"
         offset="1"
         id="stop5908" />
    </linearGradient>
    <marker
       orient="auto"
       refY="0"
       refX="0"
       id="Arrow2Mend"
       style="overflow:visible">
      <path
         id="path870"
         style="fill:#000000;fill-opacity:1;fill-rule:evenodd;stroke:#000000;stroke-width:0.625;stroke-linejoin:round;stroke-opacity:1"
         d="M 8.7185878,4.0337352 -2.2072895,0.01601326 8.7185884,-4.0017078 c -1.7454984,2.3720609 -1.7354408,5.6174519 -6e-7,8.035443 z"
         transform="scale(-0.6)" />
    </marker>
    <marker
       orient="auto"
       refY="0"
       refX="0"
       id="marker1266"
       style="overflow:visible">
      <path
         id="path1264"
         d="M 0,0 5,-5 -12.5,0 5,5 Z"
         style="fill:#000000;fill-opacity:1;fill-rule:evenodd;stroke:#000000;stroke-width:1pt;stroke-opacity:1"
         transform="matrix(-0.4,0,0,-0.4,-4,0)" />
    </marker>
    <marker
       orient="auto"
       refY="0"
       refX="0"
       id="Arrow1Mend"
       style="overflow:visible">
      <path
         id="path852"
         d="M 0,0 5,-5 -12.5,0 5,5 Z"
         style="fill:#000000;fill-opacity:1;fill-rule:evenodd;stroke:#000000;stroke-width:1pt;stroke-opacity:1"
         transform="matrix(-0.4,0,0,-0.4,-4,0)" />
    </marker>
    <marker
       orient="auto"
       refY="0"
       refX="0"
       id="Arrow1Lstart"
       style="overflow:visible">
      <path
         id="path843"
         d="M 0,0 5,-5 -12.5,0 5,5 Z"
         style="fill:#000000;fill-opacity:1;fill-rule:evenodd;stroke:#000000;stroke-width:1pt;stroke-opacity:1"
         transform="matrix(0.8,0,0,0.8,10,0)" />
    </marker>
    <symbol
       id="FirstAid">
      <title
         id="title3423">First Aid</title>
      <path
         d="m 11.641667,3.4395833 v 3.96875 h 3.96875 v 4.2333337 h -3.96875 v 3.96875 H 7.4083333 v -3.96875 h -3.96875 V 7.4083333 h 3.96875 v -3.96875 z"
         style="stroke:none;stroke-width:1"
         id="path3425" />
    </symbol>
    <marker
       inkscape:isstock="true"
       style="overflow:visible"
       id="TriangleInS-2"
       refX="0"
       refY="0"
       orient="auto"
       inkscape:stockid="TriangleInS">
      <path
         transform="scale(-0.2)"
         style="fill:#000000;fill-opacity:1;fill-rule:evenodd;stroke:#000000;stroke-width:1pt;stroke-opacity:1"
         d="M 5.77,0 -2.88,5 V -5 Z"
         id="path1058-5" />
    </marker>
  </defs>
  <metadata
     id="metadata5">
    <rdf:RDF>
      <cc:Work
         rdf:about="">
        <dc:format>image/svg+xml</dc:format>
        <dc:type
           rdf:resource="http://purl.org/dc/dcmitype/StillImage" />
        <dc:title />
      </cc:Work>
    </rdf:RDF>
  </metadata>
  <ellipse
     ry="1.5"
     rx="1.4999229"
     cy="-1.1007482"
     cx="-3.7969313"
     style="fill:none;fill-opacity:1;stroke:#000000;stroke-width:0.26511249;stroke-linecap:round;stroke-miterlimit:4;stroke-dasharray:none;stroke-opacity:1;marker-start:;stop-color:#000000"
     id="path894"
     transform="rotate(-169.33672)" />
  <path
     style="fill:none;stroke:#000000;stroke-width:0.264583px;stroke-linecap:butt;stroke-linejoin:miter;stroke-opacity:1"
     d="M 0.09577029,5.1196582 2.4138965,2.9199762"
     id="path896" />
  <circle
     r="1"
     cy="1.7738326"
     cx="3.5212398"
     id="path894-4"
     style="fill:none;fill-opacity:1;stroke:#000000;stroke-width:0.165;stroke-linecap:round;stroke-miterlimit:4;stroke-dasharray:none;stroke-opacity:1;stop-color:#000000" />
  <flowRoot
     transform="matrix(0.22156107,0,0,0.22156107,-7.4452197,-9.0350209)"
     style="font-style:normal;font-weight:normal;font-size:40px;line-height:1.25;font-family:sans-serif;letter-spacing:0px;word-spacing:0px;fill:#000000;fill-opacity:1;stroke:none;stroke-width:4.51343"
     id="flowRoot4421"
     xml:space="preserve"><flowRegion
       style="stroke-width:4.51343"
       id="flowRegion4423"><rect
         style="stroke-width:4.51343"
         y="103.80695"
         x="-105.05586"
         height="50.507626"
         width="66.670067"
         id="rect4425" /></flowRegion><flowPara
       style="stroke-width:4.51343"
       id="flowPara4427" /></flowRoot>
  <path
     style="fill:#241f20;stroke-width:0.264583"
     inkscape:connector-curvature="0"
     d="m 4.0631551,4.1358856 c 0,-0.2820948 -0.2287088,-0.5106988 -0.5106152,-0.5106988 -0.2781368,0 -0.5039135,0.2224255 -0.5101963,0.4990332 -2.375e-4,-6.26e-5 -3.966e-4,-6.26e-5 -6.324e-4,-6.26e-5 0,0.00252 2.375e-4,0.00503 2.375e-4,0.00752 0,0.0014 -2.375e-4,0.0028 -2.375e-4,0.00421 0,0.00509 6.324e-4,0.00997 8.396e-4,0.014996 0.00565,0.3318373 0.3807627,0.6820218 0.5099873,0.8066592 0.3625405,-0.2939915 0.4680983,-0.5666822 0.4986765,-0.7120759 0.00104,-0.00509 0.0021,-0.010179 0.00293,-0.015268 0.00293,-0.015666 0.00503,-0.029678 0.00649,-0.041721 0,-1.591e-4 0,-3.175e-4 0,-4.762e-4 0.00377,-0.033636 0.00251,-0.05215 0.00251,-0.05215 z m -0.073095,0.054853 c 0,7.99e-5 0,2.375e-4 0,3.969e-4 -0.00126,0.010367 -0.00293,0.022452 -0.00545,0.035919 -8.387e-4,0.00438 -0.00168,0.00878 -0.00272,0.013173 C 3.9557115,4.3654515 3.8648146,4.6003599 3.5525391,4.8535728 3.4413269,4.7461927 3.1181608,4.4445989 3.1131342,4.1587346 c 0,-0.00434 -6.324e-4,-0.00852 -6.324e-4,-0.012923 0,-0.0012 2.375e-4,-0.00241 2.375e-4,-0.00363 0,-0.00214 -2.375e-4,-0.00431 -2.375e-4,-0.00647 2.375e-4,0 3.967e-4,0 6.324e-4,4.2e-5 0.00523,-0.238259 0.1998056,-0.429834 0.4394049,-0.429834 0.2429509,0 0.4398245,0.1969366 0.4398245,0.4398874 0,2.06e-5 0.00104,0.016001 -0.0023,0.044945 z"
     id="path291-5-6" />
  <path
     id="path291-5-6-5"
     d="m 1.572703,1.6242173 c 0,-0.2820948 -0.2287088,-0.5106988 -0.5106152,-0.5106988 -0.27813679,0 -0.50391349,0.2224255 -0.51019629,0.4990332 -2.375e-4,-6.26e-5 -3.966e-4,-6.26e-5 -6.324e-4,-6.26e-5 0,0.00252 2.375e-4,0.00503 2.375e-4,0.00752 0,0.0014 -2.375e-4,0.0028 -2.375e-4,0.00421 0,0.00509 6.324e-4,0.00997 8.396e-4,0.014996 0.00565,0.3318373 0.3807627,0.6820218 0.50998729,0.8066592 0.3625405,-0.2939915 0.4680983,-0.5666822 0.4986765,-0.7120759 0.00104,-0.00509 0.0021,-0.010179 0.00293,-0.015268 0.00293,-0.015666 0.00503,-0.029678 0.00649,-0.041721 0,-1.591e-4 0,-3.175e-4 0,-4.762e-4 0.00377,-0.033636 0.00251,-0.05215 0.00251,-0.05215 z m -0.073095,0.054853 c 0,7.99e-5 0,2.375e-4 0,3.969e-4 -0.00126,0.010367 -0.00293,0.022452 -0.00545,0.035919 -8.388e-4,0.00438 -0.00168,0.00878 -0.00272,0.013173 C 1.4652594,1.8537832 1.3743625,2.0886916 1.062087,2.3419045 0.95087481,2.2345244 0.62770871,1.9329306 0.62268211,1.6470663 c 0,-0.00434 -6.324e-4,-0.00852 -6.324e-4,-0.012923 0,-0.0012 2.375e-4,-0.00241 2.375e-4,-0.00363 0,-0.00214 -2.375e-4,-0.00431 -2.375e-4,-0.00647 2.375e-4,0 3.966e-4,0 6.324e-4,4.2e-5 0.00523,-0.2382587 0.1998056,-0.4298338 0.43940489,-0.4298338 0.2429509,0 0.4398245,0.1969367 0.4398245,0.4398875 0,2.05e-5 0.00104,0.016001 -0.0023,0.044945 z"
     inkscape:connector-curvature="0"
     style="fill:#241f20;stroke-width:0.264583" />
  <path
     style="fill:#241f20;stroke-width:0.264583"
     inkscape:connector-curvature="0"
     d="m 4.034138,1.6529221 c 0,-0.2820948 -0.2287088,-0.5106988 -0.5106152,-0.5106988 -0.2781368,0 -0.5039135,0.2224255 -0.5101963,0.4990332 -2.375e-4,-6.26e-5 -3.966e-4,-6.26e-5 -6.324e-4,-6.26e-5 0,0.00252 2.375e-4,0.00503 2.375e-4,0.00752 0,0.0014 -2.375e-4,0.0028 -2.375e-4,0.00421 0,0.00509 6.324e-4,0.00997 8.396e-4,0.014996 0.00565,0.3318373 0.3807627,0.6820218 0.5099873,0.8066592 0.3625405,-0.2939915 0.4680983,-0.5666822 0.4986765,-0.7120759 0.00104,-0.00509 0.0021,-0.010179 0.00293,-0.015268 0.00293,-0.015666 0.00503,-0.029678 0.00649,-0.041721 0,-1.591e-4 0,-3.175e-4 0,-4.762e-4 0.00377,-0.033636 0.00251,-0.05215 0.00251,-0.05215 z m -0.073095,0.054853 c 0,7.99e-5 0,2.375e-4 0,3.969e-4 -0.00126,0.010367 -0.00293,0.022452 -0.00545,0.035919 -8.388e-4,0.00438 -0.00168,0.00878 -0.00272,0.013173 C 3.9266944,1.882488 3.8357975,2.1173964 3.523522,2.3706093 3.4123098,2.2632292 3.0891437,1.9616354 3.0841171,1.6757711 c 0,-0.00434 -6.324e-4,-0.00852 -6.324e-4,-0.012923 0,-0.0012 2.375e-4,-0.00241 2.375e-4,-0.00363 0,-0.00214 -2.375e-4,-0.00431 -2.375e-4,-0.00647 2.375e-4,0 3.966e-4,0 6.324e-4,4.2e-5 0.00523,-0.2382587 0.1998056,-0.4298338 0.4394049,-0.4298338 0.2429509,0 0.4398245,0.1969367 0.4398245,0.4398875 0,2.05e-5 0.00104,0.016001 -0.0023,0.044945 z"
     id="path291-5-6-5-3" />
  <path
     id="path291-5-6-5-3-7"
     d="m 4.034138,1.6525252 c 0,-0.2820948 -0.2287088,-0.5106988 -0.5106152,-0.5106988 -0.2781368,0 -0.5039135,0.2224255 -0.5101963,0.4990332 -2.375e-4,-6.26e-5 -3.966e-4,-6.26e-5 -6.324e-4,-6.26e-5 0,0.00252 2.375e-4,0.00503 2.375e-4,0.00752 0,0.0014 -2.375e-4,0.0028 -2.375e-4,0.00421 0,0.00509 6.324e-4,0.00997 8.396e-4,0.014996 0.00565,0.3318373 0.3807627,0.6820218 0.5099873,0.8066592 C 3.8860615,2.1801907 3.9916193,1.9075 4.0221975,1.7621063 c 0.00104,-0.00509 0.0021,-0.010179 0.00293,-0.015268 0.00293,-0.015666 0.00503,-0.029678 0.00649,-0.041721 0,-1.591e-4 0,-3.175e-4 0,-4.763e-4 0.00377,-0.033636 0.00251,-0.05215 0.00251,-0.05215 z m -0.073095,0.054853 c 0,7.99e-5 0,2.375e-4 0,3.969e-4 -0.00126,0.010367 -0.00293,0.022452 -0.00545,0.035919 -8.388e-4,0.00438 -0.00168,0.00878 -0.00272,0.013173 C 3.9266944,1.8820911 3.8357975,2.1169995 3.523522,2.3702124 3.4123098,2.2628323 3.0891437,1.9612385 3.0841171,1.6753742 c 0,-0.00434 -6.324e-4,-0.00852 -6.324e-4,-0.012923 0,-0.0012 2.375e-4,-0.00241 2.375e-4,-0.00363 0,-0.00214 -2.375e-4,-0.00431 -2.375e-4,-0.00647 2.375e-4,0 3.966e-4,0 6.324e-4,4.2e-5 0.00523,-0.2382587 0.1998056,-0.4298338 0.4394049,-0.4298338 0.2429509,0 0.4398245,0.1969367 0.4398245,0.4398875 0,2.05e-5 0.00104,0.016001 -0.0023,0.044945 z"
     inkscape:connector-curvature="0"
     style="fill:#241f20;stroke-width:0.10583333;stroke:#000000;stroke-opacity:1;stroke-miterlimit:4;stroke-dasharray:none" />
  <path
     style="fill:#241f20;stroke:#000000;stroke-width:0.105833;stroke-miterlimit:4;stroke-dasharray:none;stroke-opacity:1"
     inkscape:connector-curvature="0"
     d="m 3.9182926,1.6705925 c 0,-0.2221651 -0.1788841,-0.4022034 -0.3993766,-0.4022034 -0.2175441,0 -0.3941349,0.1751723 -0.399049,0.3930161 -1.857e-4,-4.93e-5 -3.102e-4,-4.93e-5 -4.946e-4,-4.93e-5 0,0.00198 1.858e-4,0.00396 1.858e-4,0.00592 0,0.0011 -1.858e-4,0.00221 -1.858e-4,0.00332 0,0.00401 4.946e-4,0.00785 6.566e-4,0.01181 0.00442,0.2613401 0.2978128,0.5371297 0.3988855,0.6352886 0.2835603,-0.2315346 0.3661221,-0.4462935 0.3900388,-0.560799 8.134e-4,-0.00401 0.00164,-0.00802 0.00229,-0.012024 0.00229,-0.012338 0.00393,-0.023373 0.00508,-0.032858 0,-1.253e-4 0,-2.5e-4 0,-3.75e-4 0.00295,-0.02649 0.00196,-0.041071 0.00196,-0.041071 z m -0.057171,0.0432 c 0,6.29e-5 0,1.87e-4 0,3.125e-4 -9.855e-4,0.00816 -0.00229,0.017682 -0.00426,0.028288 -6.56e-4,0.00345 -0.00131,0.00691 -0.00213,0.010374 -0.020476,0.098621 -0.09157,0.2836242 -0.335816,0.4830433 C 3.431931,2.1512429 3.1791673,1.9137212 3.1752358,1.6885874 c 0,-0.00342 -4.947e-4,-0.00671 -4.947e-4,-0.010178 0,-9.451e-4 1.858e-4,-0.0019 1.858e-4,-0.00286 0,-0.00169 -1.858e-4,-0.00339 -1.858e-4,-0.0051 1.858e-4,0 3.102e-4,0 4.947e-4,3.31e-5 0.00409,-0.1876417 0.1562775,-0.3385176 0.3436796,-0.3385176 0.1900235,0 0.3440078,0.1550985 0.3440078,0.3464356 0,1.61e-5 8.134e-4,0.012602 -0.0018,0.035397 z"
     id="path291-5-6-5-3-7-0" />
  <path
     id="path291-5-6-5-3-7-0-6"
     d="m 3.8250505,1.6857555 c 0,-0.1733942 -0.1383152,-0.3139095 -0.3088024,-0.3139095 -0.1682076,0 -0.3047495,0.1367175 -0.3085492,0.306739 -1.435e-4,-3.85e-5 -2.397e-4,-3.85e-5 -3.824e-4,-3.85e-5 0,0.00155 1.437e-4,0.00309 1.437e-4,0.00462 0,8.585e-4 -1.437e-4,0.00172 -1.437e-4,0.00259 0,0.00313 3.824e-4,0.00613 5.078e-4,0.00922 0.00342,0.2039693 0.2302721,0.4192161 0.3084227,0.4958266 0.219252,-0.1807069 0.2830897,-0.3483207 0.3015824,-0.4376893 6.28e-4,-0.00313 0.00127,-0.00626 0.00177,-0.00938 0.00177,-0.00963 0.00304,-0.018242 0.00393,-0.025645 0,-9.78e-5 0,-1.951e-4 0,-2.932e-4 0.00228,-0.020675 0.00152,-0.032055 0.00152,-0.032055 z m -0.044205,0.033717 c 0,4.91e-5 0,1.459e-4 0,2.436e-4 -7.61e-4,0.00637 -0.00177,0.0138 -0.00329,0.022078 -5.074e-4,0.00269 -0.00101,0.00539 -0.00165,0.0081 C 3.7600722,1.8268618 3.7051015,1.971252 3.5162478,2.1268936 3.4489903,2.0608909 3.2535506,1.8755112 3.2505107,1.6998 c 0,-0.00267 -3.826e-4,-0.00524 -3.826e-4,-0.00794 0,-7.373e-4 1.437e-4,-0.00148 1.437e-4,-0.00223 0,-0.00132 -1.437e-4,-0.00265 -1.437e-4,-0.00398 1.437e-4,0 2.398e-4,0 3.826e-4,2.58e-5 0.00316,-0.1464495 0.1208355,-0.2642043 0.2657369,-0.2642043 0.1469283,0 0.2659907,0.1210504 0.2659907,0.2703841 0,1.26e-5 6.28e-4,0.00984 -0.00139,0.027627 z"
     inkscape:connector-curvature="0"
     style="fill:#241f20;stroke:#000000;stroke-width:0.105833;stroke-miterlimit:4;stroke-dasharray:none;stroke-opacity:1" />
  <path
     style="fill:#241f20;stroke:#000000;stroke-width:0.31749999;stroke-miterlimit:4;stroke-dasharray:none;stroke-opacity:1"
     inkscape:connector-curvature="0"
     d="m 3.7011583,1.698997 c 0,-0.1138601 -0.081307,-0.2061307 -0.1815255,-0.2061307 -0.098879,0 -0.179143,0.089777 -0.1813766,0.2014223 -8.43e-5,-2.54e-5 -1.409e-4,-2.54e-5 -2.248e-4,-2.54e-5 0,0.00102 8.46e-5,0.00202 8.46e-5,0.00303 0,5.63e-4 -8.46e-5,0.00113 -8.46e-5,0.0017 0,0.00206 2.248e-4,0.00402 2.985e-4,0.00606 0.00201,0.1339378 0.1353625,0.275281 0.1813023,0.3255878 0.1288844,-0.1186622 0.1664106,-0.2287271 0.1772813,-0.2874115 3.687e-4,-0.00206 7.466e-4,-0.00411 0.00104,-0.00616 0.00104,-0.00632 0.00179,-0.011979 0.00231,-0.01684 0,-6.42e-5 0,-1.282e-4 0,-1.928e-4 0.00133,-0.013576 8.935e-4,-0.021049 8.935e-4,-0.021049 z m -0.025985,0.02214 c 0,3.22e-5 0,9.58e-5 0,1.599e-4 -4.478e-4,0.00418 -0.00104,0.00907 -0.00193,0.014497 -2.987e-4,0.00177 -5.938e-4,0.00354 -9.699e-4,0.00532 C 3.6629634,1.7916559 3.6306524,1.88647 3.519637,1.9886731 3.480101,1.9453321 3.3652138,1.8236013 3.3634268,1.7082193 c 0,-0.00175 -2.248e-4,-0.00344 -2.248e-4,-0.00521 0,-4.848e-4 8.44e-5,-9.719e-4 8.44e-5,-0.00146 0,-8.668e-4 -8.44e-5,-0.00174 -8.44e-5,-0.00261 8.44e-5,0 1.409e-4,0 2.248e-4,1.69e-5 0.00186,-0.096167 0.071031,-0.1734914 0.15621,-0.1734914 0.086369,0 0.1563592,0.079489 0.1563592,0.1775495 0,8.2e-6 3.686e-4,0.00647 -8.17e-4,0.018141 z"
     id="path291-5-6-5-3-7-0-6-4" />
</svg>
