<?xml version="1.0" encoding="UTF-8" standalone="no"?>
<svg
   xmlns:osb="http://www.openswatchbook.org/uri/2009/osb"
   xmlns:dc="http://purl.org/dc/elements/1.1/"
   xmlns:cc="http://creativecommons.org/ns#"
   xmlns:rdf="http://www.w3.org/1999/02/22-rdf-syntax-ns#"
   xmlns:svg="http://www.w3.org/2000/svg"
   xmlns="http://www.w3.org/2000/svg"
   xmlns:xlink="http://www.w3.org/1999/xlink"
   xmlns:sodipodi="http://sodipodi.sourceforge.net/DTD/sodipodi-0.dtd"
   xmlns:inkscape="http://www.inkscape.org/namespaces/inkscape"
   sodipodi:docname="add_storyline.svg"
   inkscape:version="1.0 (4035a4fb49, 2020-05-01)"
   id="svg8"
   version="1.1"
   viewBox="0 0 5.6618609 5.2062693"
   height="5.2062693mm"
   width="5.6618609mm">
  <defs
     id="defs2">
    <rect
       id="rect1324"
       height="4.2456988"
       width="2.9404851"
       y="-4.8704448"
       x="19.737193" />
    <linearGradient
       inkscape:collect="always"
       id="Blue">
      <stop
         style="stop-color:#020467;stop-opacity:1"
         offset="0"
         id="stop8403" />
      <stop
         style="stop-color:#476beb;stop-opacity:1"
         offset="1"
         id="stop8405" />
    </linearGradient>
    <marker
       inkscape:stockid="Arrow2Send"
       orient="auto"
       refY="0.0"
       refX="0.0"
       id="Arrow2Send"
       style="overflow:visible;"
       inkscape:isstock="true">
      <path
         id="path7060"
         style="fill-rule:evenodd;stroke-width:0.625;stroke-linejoin:round;stroke:#000000;stroke-opacity:1;fill:#000000;fill-opacity:1"
         d="M 8.7185878,4.0337352 L -2.2072895,0.016013256 L 8.7185884,-4.0017078 C 6.9730900,-1.6296469 6.9831476,1.6157441 8.7185878,4.0337352 z "
         transform="scale(0.3) rotate(180) translate(-2.3,0)" />
    </marker>
    <marker
       inkscape:stockid="Arrow2Mend"
       orient="auto"
       refY="0.0"
       refX="0.0"
       id="marker8065"
       style="overflow:visible;"
       inkscape:isstock="true">
      <path
         id="path7054"
         style="fill-rule:evenodd;stroke-width:0.625;stroke-linejoin:round;stroke:#000000;stroke-opacity:1;fill:#000000;fill-opacity:1"
         d="M 8.7185878,4.0337352 L -2.2072895,0.016013256 L 8.7185884,-4.0017078 C 6.9730900,-1.6296469 6.9831476,1.6157441 8.7185878,4.0337352 z "
         transform="scale(0.6) rotate(180) translate(0,0)" />
    </marker>
    <marker
       inkscape:stockid="Arrow1Send"
       orient="auto"
       refY="0.0"
       refX="0.0"
       id="Arrow1Send"
       style="overflow:visible;"
       inkscape:isstock="true">
      <path
         id="path7042"
         d="M 0.0,0.0 L 5.0,-5.0 L -12.5,0.0 L 5.0,5.0 L 0.0,0.0 z "
         style="fill-rule:evenodd;stroke:#000000;stroke-width:1pt;stroke-opacity:1;fill:#000000;fill-opacity:1"
         transform="scale(0.2) rotate(180) translate(6,0)" />
    </marker>
    <marker
       inkscape:stockid="Arrow1Sstart"
       orient="auto"
       refY="0.0"
       refX="0.0"
       id="Arrow1Sstart"
       style="overflow:visible"
       inkscape:isstock="true">
      <path
         id="path7039"
         d="M 0.0,0.0 L 5.0,-5.0 L -12.5,0.0 L 5.0,5.0 L 0.0,0.0 z "
         style="fill-rule:evenodd;stroke:#000000;stroke-width:1pt;stroke-opacity:1;fill:#000000;fill-opacity:1"
         transform="scale(0.2) translate(6,0)" />
    </marker>
    <marker
       inkscape:stockid="Arrow1Mend"
       orient="auto"
       refY="0.0"
       refX="0.0"
       id="marker7734"
       style="overflow:visible;"
       inkscape:isstock="true">
      <path
         id="path7732"
         d="M 0.0,0.0 L 5.0,-5.0 L -12.5,0.0 L 5.0,5.0 L 0.0,0.0 z "
         style="fill-rule:evenodd;stroke:#000000;stroke-width:1pt;stroke-opacity:1;fill:#000000;fill-opacity:1"
         transform="scale(0.4) rotate(180) translate(10,0)" />
    </marker>
    <marker
       inkscape:stockid="Arrow1Mend"
       orient="auto"
       refY="0.0"
       refX="0.0"
       id="marker7634"
       style="overflow:visible;"
       inkscape:isstock="true">
      <path
         id="path7632"
         d="M 0.0,0.0 L 5.0,-5.0 L -12.5,0.0 L 5.0,5.0 L 0.0,0.0 z "
         style="fill-rule:evenodd;stroke:#000000;stroke-width:1pt;stroke-opacity:1;fill:#000000;fill-opacity:1"
         transform="scale(0.4) rotate(180) translate(10,0)" />
    </marker>
    <marker
       inkscape:isstock="true"
       style="overflow:visible;"
       id="marker7528"
       refX="0.0"
       refY="0.0"
       orient="auto"
       inkscape:stockid="Arrow1Mend">
      <path
         transform="scale(0.4) rotate(180) translate(10,0)"
         style="fill-rule:evenodd;stroke:#000000;stroke-width:1pt;stroke-opacity:1;fill:#000000;fill-opacity:1"
         d="M 0.0,0.0 L 5.0,-5.0 L -12.5,0.0 L 5.0,5.0 L 0.0,0.0 z "
         id="path7526" />
    </marker>
    <marker
       inkscape:stockid="Arrow1Mend"
       orient="auto"
       refY="0.0"
       refX="0.0"
       id="marker7290"
       style="overflow:visible;"
       inkscape:isstock="true">
      <path
         id="path7036"
         d="M 0.0,0.0 L 5.0,-5.0 L -12.5,0.0 L 5.0,5.0 L 0.0,0.0 z "
         style="fill-rule:evenodd;stroke:#241f20;stroke-width:1pt;stroke-opacity:1;fill:#241f20;fill-opacity:1"
         transform="scale(0.4) rotate(180) translate(10,0)" />
    </marker>
    <linearGradient
       id="linearGradient5900"
       osb:paint="gradient">
      <stop
         id="stop5906"
         offset="0"
         style="stop-color:#00ff00;stop-opacity:1;" />
      <stop
         id="stop5908"
         offset="1"
         style="stop-color:#00ff00;stop-opacity:0;" />
    </linearGradient>
    <marker
       inkscape:isstock="true"
       style="overflow:visible"
       id="Arrow2Mend"
       refX="0"
       refY="0"
       orient="auto"
       inkscape:stockid="Arrow2Mend">
      <path
         transform="scale(-0.6)"
         d="M 8.7185878,4.0337352 -2.2072895,0.01601326 8.7185884,-4.0017078 c -1.7454984,2.3720609 -1.7354408,5.6174519 -6e-7,8.035443 z"
         style="fill:#000000;fill-opacity:1;fill-rule:evenodd;stroke:#000000;stroke-width:0.625;stroke-linejoin:round;stroke-opacity:1"
         id="path870" />
    </marker>
    <marker
       inkscape:isstock="true"
       style="overflow:visible"
       id="marker1266"
       refX="0"
       refY="0"
       orient="auto"
       inkscape:stockid="Arrow1Mend">
      <path
         transform="matrix(-0.4,0,0,-0.4,-4,0)"
         style="fill:#000000;fill-opacity:1;fill-rule:evenodd;stroke:#000000;stroke-width:1pt;stroke-opacity:1"
         d="M 0,0 5,-5 -12.5,0 5,5 Z"
         id="path1264" />
    </marker>
    <marker
       inkscape:isstock="true"
       style="overflow:visible"
       id="Arrow1Mend"
       refX="0"
       refY="0"
       orient="auto"
       inkscape:stockid="Arrow1Mend">
      <path
         transform="matrix(-0.4,0,0,-0.4,-4,0)"
         style="fill:#000000;fill-opacity:1;fill-rule:evenodd;stroke:#000000;stroke-width:1pt;stroke-opacity:1"
         d="M 0,0 5,-5 -12.5,0 5,5 Z"
         id="path852" />
    </marker>
    <marker
       inkscape:isstock="true"
       style="overflow:visible"
       id="Arrow1Lstart"
       refX="0"
       refY="0"
       orient="auto"
       inkscape:stockid="Arrow1Lstart">
      <path
         transform="matrix(0.8,0,0,0.8,10,0)"
         style="fill:#000000;fill-opacity:1;fill-rule:evenodd;stroke:#000000;stroke-width:1pt;stroke-opacity:1"
         d="M 0,0 5,-5 -12.5,0 5,5 Z"
         id="path843" />
    </marker>
    <symbol
       id="FirstAid">
      <title
         id="title3423">First Aid</title>
      <path
         id="path3425"
         style="stroke:none;stroke-width:1"
         d="m 11.641667,3.4395833 v 3.96875 h 3.96875 v 4.2333337 h -3.96875 v 3.96875 H 7.4083333 v -3.96875 h -3.96875 V 7.4083333 h 3.96875 v -3.96875 z" />
    </symbol>
    <marker
       inkscape:stockid="Arrow2Mstart"
       orient="auto"
       refY="0"
       refX="0"
       id="Arrow2Mstart"
       style="overflow:visible"
       inkscape:isstock="true">
      <path
         id="path4908"
         style="fill:#000000;fill-opacity:1;fill-rule:evenodd;stroke:#000000;stroke-width:0.625;stroke-linejoin:round;stroke-opacity:1"
         d="M 8.7185878,4.0337352 -2.2072895,0.01601326 8.7185884,-4.0017078 c -1.7454984,2.3720609 -1.7354408,5.6174519 -6e-7,8.035443 z"
         transform="scale(0.6)" />
    </marker>
    <marker
       style="overflow:visible"
       id="marker1455-3-7"
       refX="0"
       refY="0"
       orient="auto">
      <path
         transform="matrix(-0.8,0,0,-0.8,-10,0)"
         style="fill:#000000;fill-opacity:1;fill-rule:evenodd;stroke:#000000;stroke-width:1pt;stroke-opacity:1"
         d="M 0,0 5,-5 -12.5,0 5,5 Z"
         id="path1453-5-2" />
    </marker>
    <marker
       style="overflow:visible"
       id="marker1485-7-9"
       refX="0"
       refY="0"
       orient="auto">
      <path
         transform="matrix(-0.8,0,0,-0.8,-10,0)"
         style="fill:#000000;fill-opacity:1;fill-rule:evenodd;stroke:#000000;stroke-width:1pt;stroke-opacity:1"
         d="M 0,0 5,-5 -12.5,0 5,5 Z"
         id="path1483-7-4" />
    </marker>
    <marker
       style="overflow:visible"
       id="marker1465-9-90"
       refX="0"
       refY="0"
       orient="auto">
      <path
         transform="matrix(-0.8,0,0,-0.8,-10,0)"
         style="fill:#000000;fill-opacity:1;fill-rule:evenodd;stroke:#000000;stroke-width:1pt;stroke-opacity:1"
         d="M 0,0 5,-5 -12.5,0 5,5 Z"
         id="path1463-5-9" />
    </marker>
    <marker
       style="overflow:visible"
       id="marker1475-3-18"
       refX="0"
       refY="0"
       orient="auto">
      <path
         transform="matrix(-0.8,0,0,-0.8,-10,0)"
         style="fill:#000000;fill-opacity:1;fill-rule:evenodd;stroke:#000000;stroke-width:1pt;stroke-opacity:1"
         d="M 0,0 5,-5 -12.5,0 5,5 Z"
         id="path1473-2-7" />
    </marker>
    <marker
       orient="auto"
       refY="0"
       refX="0"
       id="marker1455-3-7-8"
       style="overflow:visible">
      <path
         id="path1453-5-2-7"
         d="M 0,0 5,-5 -12.5,0 5,5 Z"
         style="fill:#000000;fill-opacity:1;fill-rule:evenodd;stroke:#000000;stroke-width:1pt;stroke-opacity:1"
         transform="matrix(-0.8,0,0,-0.8,-10,0)" />
    </marker>
    <marker
       style="overflow:visible"
       id="marker1455-3-7-8-0"
       refX="0"
       refY="0"
       orient="auto">
      <path
         transform="matrix(-0.8,0,0,-0.8,-10,0)"
         style="fill:#000000;fill-opacity:1;fill-rule:evenodd;stroke:#000000;stroke-width:1pt;stroke-opacity:1"
         d="M 0,0 5,-5 -12.5,0 5,5 Z"
         id="path1453-5-2-7-1" />
    </marker>
    <linearGradient
       inkscape:collect="always"
       xlink:href="#Blue"
       id="linearGradient8409"
       x1="4.8628378"
       y1="3.7749786"
       x2="6.451002"
       y2="3.7749786"
       gradientUnits="userSpaceOnUse"
       gradientTransform="translate(-0.08185129,0.15785606)" />
    <linearGradient
       inkscape:collect="always"
       xlink:href="#Blue"
       id="linearGradient8433"
       x1="4.0175653"
       y1="4.327095"
       x2="6.5064197"
       y2="4.2725992"
       gradientUnits="userSpaceOnUse" />
    <filter
       inkscape:collect="always"
       style="color-interpolation-filters:sRGB"
       id="filter6092"
       x="-0.108"
       width="1.216"
       y="-0.108"
       height="1.216">
      <feGaussianBlur
         inkscape:collect="always"
         stdDeviation="0.54768752"
         id="feGaussianBlur6094" />
    </filter>
    <linearGradient
       inkscape:collect="always"
       xlink:href="#Plus"
       id="linearGradient6020"
       x1="9.5250006"
       y1="15.610417"
       x2="9.5250006"
       y2="3.4395833"
       gradientUnits="userSpaceOnUse"
       gradientTransform="translate(2.1155308,-0.33952963)" />
    <linearGradient
       inkscape:collect="always"
       id="Plus">
      <stop
         id="stop6014"
         offset="0"
         style="stop-color:#036601;stop-opacity:1" />
      <stop
         id="stop6012"
         offset="1"
         style="stop-color:#72f44c;stop-opacity:1;" />
    </linearGradient>
    <linearGradient
       y2="3.4395833"
       x2="9.5250006"
       y1="15.610417"
       x1="9.5250006"
       gradientTransform="translate(2.1155308,-0.33952963)"
       gradientUnits="userSpaceOnUse"
       id="linearGradient1317"
       xlink:href="#Plus"
       inkscape:collect="always" />
  </defs>
  <sodipodi:namedview
     inkscape:window-maximized="1"
     inkscape:window-y="872"
     inkscape:window-x="-12"
     inkscape:window-height="1780"
     inkscape:window-width="3360"
     inkscape:snap-grids="true"
     inkscape:snap-page="true"
     inkscape:snap-text-baseline="true"
     inkscape:snap-center="true"
     inkscape:snap-object-midpoints="true"
     inkscape:snap-midpoints="true"
     inkscape:snap-smooth-nodes="true"
     inkscape:snap-intersection-paths="true"
     inkscape:object-paths="true"
     inkscape:snap-bbox-midpoints="true"
     inkscape:snap-bbox-edge-midpoints="true"
     inkscape:bbox-paths="true"
     inkscape:bbox-nodes="true"
     inkscape:snap-bbox="true"
     showgrid="false"
     inkscape:document-rotation="0"
     inkscape:current-layer="layer1"
     inkscape:document-units="mm"
     inkscape:cy="0.90764392"
     inkscape:cx="20.125658"
     inkscape:zoom="16"
     inkscape:pageshadow="2"
     inkscape:pageopacity="0.0"
     borderopacity="1.0"
     bordercolor="#666666"
     pagecolor="#ffffff"
     id="base"
     inkscape:snap-global="false" />
  <metadata
     id="metadata5">
    <rdf:RDF>
      <cc:Work
         rdf:about="">
        <dc:format>image/svg+xml</dc:format>
        <dc:type
           rdf:resource="http://purl.org/dc/dcmitype/StillImage" />
        <dc:title />
      </cc:Work>
    </rdf:RDF>
  </metadata>
  <g
     transform="translate(-1.1218704,-0.22772141)"
     id="layer1"
     inkscape:groupmode="layer"
     inkscape:label="Layer 1">
    <path
       style="fill:#241f20;stroke-width:0.264584"
       inkscape:connector-curvature="0"
       d="m 5.3725209,2.4877594 c 0,-0.7476562 -0.6061636,-1.3535409 -1.3533192,-1.3535409 -0.7371645,0 -1.3355559,0.5895104 -1.3522076,1.3226226 -6.301e-4,-1.653e-4 -0.00105,-1.653e-4 -0.00163,-1.653e-4 0,0.00664 6.299e-4,0.013327 6.299e-4,0.019928 0,0.0037 -6.299e-4,0.0074 -6.299e-4,0.011163 0,0.013505 0.00163,0.026421 0.00218,0.039742 0.014972,0.8794851 1.0091501,1.807603 1.3516427,2.137938 0.9608665,-0.7791851 1.2406333,-1.501917 1.3216769,-1.8872631 0.00273,-0.013505 0.00555,-0.026976 0.00771,-0.040471 0.00771,-0.041525 0.013327,-0.078655 0.017198,-0.1105745 0,-4.215e-4 0,-8.409e-4 0,-0.00131 0.010013,-0.089145 0.00664,-0.1382172 0.00664,-0.1382172 z m -0.1937289,0.14538 c 0,2.119e-4 0,6.3e-4 0,0.00105 -0.00337,0.027478 -0.00771,0.059504 -0.014424,0.095197 -0.00218,0.011615 -0.00447,0.023256 -0.00718,0.03491 C 5.0877951,3.0961853 4.8468832,3.7187786 4.0192376,4.3898868 3.724484,4.1052906 2.8679738,3.3059548 2.854652,2.5483087 c 0,-0.011505 -0.00163,-0.02259 -0.00163,-0.034247 0,-0.00316 6.298e-4,-0.00642 6.298e-4,-0.00956 0,-0.00566 -6.298e-4,-0.011437 -6.298e-4,-0.017134 6.298e-4,0 0.00105,0 0.00163,1.109e-4 0.013865,-0.6314751 0.5295585,-1.1392192 1.1645856,-1.1392192 0.6439094,0 1.1656969,0.5219541 1.1656969,1.1658641 0,5.44e-5 0.00273,0.042407 -0.00608,0.1191214 z"
       id="path291-5" />
    <path
       id="path291-5-9"
       d="m 6.5324679,3.6509806 c 0,-0.3477955 -0.2819758,-0.6296417 -0.6295384,-0.6296417 -0.342915,0 -0.6212753,0.2742292 -0.6290214,0.6152591 -2.931e-4,-7.69e-5 -4.891e-4,-7.69e-5 -7.604e-4,-7.69e-5 0,0.00309 2.93e-4,0.0062 2.93e-4,0.00927 0,0.00172 -2.93e-4,0.00344 -2.93e-4,0.00519 0,0.00628 7.604e-4,0.012291 0.00101,0.018487 0.00697,0.4091227 0.4694428,0.8408655 0.6287638,0.9945311 0.4469769,-0.3624621 0.5771191,-0.6986633 0.6148191,-0.877919 0.00127,-0.00628 0.00258,-0.012549 0.00359,-0.018826 0.00359,-0.019317 0.0062,-0.036589 0.008,-0.051437 0,-1.961e-4 0,-3.916e-4 0,-6.085e-4 0.00466,-0.041469 0.00309,-0.064296 0.00309,-0.064296 z m -0.090119,0.067628 c 0,9.86e-5 0,2.937e-4 0,4.895e-4 -0.00157,0.012782 -0.00359,0.02768 -0.00671,0.044284 -0.00101,0.0054 -0.00208,0.010818 -0.00334,0.016239 C 6.4000189,3.9340087 6.2879512,4.2236273 5.9029462,4.5358141 5.7658324,4.4034253 5.3674001,4.0315895 5.361203,3.679147 c 0,-0.00535 -7.604e-4,-0.010509 -7.604e-4,-0.015931 0,-0.00147 2.929e-4,-0.00299 2.929e-4,-0.00445 0,-0.00263 -2.929e-4,-0.00532 -2.929e-4,-0.00797 2.929e-4,0 4.892e-4,0 7.604e-4,5.16e-5 0.00645,-0.2937504 0.2463406,-0.5299435 0.5417432,-0.5299435 0.2995344,0 0.5422601,0.2428033 0.5422601,0.5423381 0,2.53e-5 0.00127,0.019727 -0.00283,0.055413 z"
       inkscape:connector-curvature="0"
       style="fill:#241f20;stroke-width:0.264583" />
    <path
       style="fill:#241f20;stroke-width:0.264583"
       inkscape:connector-curvature="0"
       d="m 2.71443,3.6447174 c 0,-0.3477956 -0.2819758,-0.6296417 -0.6295384,-0.6296417 -0.342915,0 -0.6212753,0.2742292 -0.6290214,0.6152591 -2.931e-4,-7.7e-5 -4.891e-4,-7.7e-5 -7.604e-4,-7.7e-5 0,0.00309 2.93e-4,0.0062 2.93e-4,0.00927 0,0.00172 -2.93e-4,0.00344 -2.93e-4,0.00519 0,0.00628 7.604e-4,0.012291 0.00101,0.018487 0.00697,0.4091227 0.4694428,0.8408655 0.6287638,0.9945311 0.4469769,-0.3624621 0.5771191,-0.6986633 0.6148191,-0.8779189 0.00127,-0.00628 0.00258,-0.012549 0.00359,-0.018826 0.00359,-0.019317 0.0062,-0.036589 0.008,-0.051437 0,-1.961e-4 0,-3.916e-4 0,-6.086e-4 0.00466,-0.041469 0.00309,-0.064296 0.00309,-0.064296 z m -0.090119,0.067628 c 0,9.86e-5 0,2.936e-4 0,4.894e-4 -0.00157,0.012782 -0.00359,0.02768 -0.00671,0.044284 -0.00101,0.0054 -0.00208,0.010818 -0.00334,0.016239 C 2.581981,3.9277454 2.4699133,4.217364 2.0849083,4.5295508 1.9477945,4.397162 1.5493622,4.0253262 1.5431651,3.6728838 c 0,-0.00535 -7.604e-4,-0.010509 -7.604e-4,-0.015931 0,-0.00147 2.929e-4,-0.00299 2.929e-4,-0.00445 0,-0.00263 -2.929e-4,-0.00532 -2.929e-4,-0.00797 2.929e-4,0 4.892e-4,0 7.604e-4,5.15e-5 0.00645,-0.2937503 0.2463406,-0.5299434 0.5417432,-0.5299434 0.2995344,0 0.5422601,0.2428032 0.5422601,0.5423381 0,2.53e-5 0.00127,0.019727 -0.00283,0.055413 z"
       id="path291-5-9-3" />
    <path
       id="path291-5-9-3-8"
       d="m 6.5966092,1.9211893 c 0,-0.3477956 -0.2819758,-0.6296417 -0.6295384,-0.6296417 -0.342915,0 -0.6212753,0.2742292 -0.6290214,0.6152591 -2.931e-4,-7.7e-5 -4.891e-4,-7.7e-5 -7.604e-4,-7.7e-5 0,0.00309 2.93e-4,0.0062 2.93e-4,0.00927 0,0.00172 -2.93e-4,0.00344 -2.93e-4,0.00519 0,0.00628 7.604e-4,0.012291 0.00101,0.018487 0.00697,0.4091227 0.4694428,0.8408655 0.6287638,0.9945311 0.4469769,-0.3624621 0.5771191,-0.6986633 0.6148191,-0.8779188 0.00127,-0.00628 0.00258,-0.012549 0.00359,-0.018826 0.00359,-0.019317 0.0062,-0.036589 0.008,-0.051437 0,-1.962e-4 0,-3.916e-4 0,-6.086e-4 0.00466,-0.041469 0.00309,-0.064296 0.00309,-0.064296 z m -0.090119,0.067628 c 0,9.86e-5 0,2.937e-4 0,4.895e-4 -0.00157,0.012782 -0.00359,0.02768 -0.00671,0.044284 -0.00101,0.0054 -0.00208,0.010818 -0.00334,0.016239 C 6.4641602,2.2042173 6.3520925,2.4938359 5.9670875,2.8060227 5.8299737,2.6736339 5.4315414,2.3017981 5.4253443,1.9493558 c 0,-0.00535 -7.604e-4,-0.010509 -7.604e-4,-0.015931 0,-0.00147 2.929e-4,-0.00299 2.929e-4,-0.00445 0,-0.00263 -2.929e-4,-0.00532 -2.929e-4,-0.00797 2.929e-4,0 4.892e-4,0 7.604e-4,5.14e-5 0.00645,-0.2937502 0.2463406,-0.5299434 0.5417432,-0.5299434 0.2995344,0 0.5422601,0.2428032 0.5422601,0.5423381 0,2.54e-5 0.00127,0.019727 -0.00283,0.055413 z"
       inkscape:connector-curvature="0"
       style="fill:#241f20;stroke-width:0.264583" />
    <path
       id="path291-5-9-3-88"
       d="m 2.7064074,1.9335917 c 0,-0.3477956 -0.2819758,-0.6296417 -0.6295384,-0.6296417 -0.342915,0 -0.6212753,0.2742292 -0.6290214,0.6152591 -2.931e-4,-7.7e-5 -4.891e-4,-7.7e-5 -7.604e-4,-7.7e-5 0,0.00309 2.93e-4,0.0062 2.93e-4,0.00927 0,0.00172 -2.93e-4,0.00344 -2.93e-4,0.00519 0,0.00628 7.604e-4,0.012291 0.00101,0.018487 0.00697,0.4091227 0.4694428,0.8408655 0.6287638,0.9945311 0.4469769,-0.3624621 0.5771191,-0.6986633 0.6148191,-0.8779189 0.00127,-0.00628 0.00258,-0.012549 0.00359,-0.018826 0.00359,-0.019317 0.0062,-0.036589 0.008,-0.051437 0,-1.961e-4 0,-3.916e-4 0,-6.086e-4 0.00466,-0.041469 0.00309,-0.064296 0.00309,-0.064296 z m -0.090119,0.067628 c 0,9.86e-5 0,2.937e-4 0,4.895e-4 -0.00157,0.012782 -0.00359,0.02768 -0.00671,0.044284 -0.00101,0.0054 -0.00208,0.010818 -0.00334,0.016239 C 2.5739584,2.2166197 2.4618907,2.5062383 2.0768857,2.8184251 1.9397719,2.6860363 1.5413396,2.3142005 1.5351425,1.9617581 c 0,-0.00535 -7.604e-4,-0.010509 -7.604e-4,-0.015931 0,-0.00147 2.929e-4,-0.00299 2.929e-4,-0.00445 0,-0.00263 -2.929e-4,-0.00532 -2.929e-4,-0.00797 2.929e-4,0 4.892e-4,0 7.604e-4,5.15e-5 0.00645,-0.2937503 0.2463406,-0.5299434 0.5417432,-0.5299434 0.2995344,0 0.5422601,0.2428032 0.5422601,0.5423381 0,2.53e-5 0.00127,0.019727 -0.00283,0.055413 z"
       inkscape:connector-curvature="0"
       style="fill:#241f20;stroke-width:0.264583" />
    <g
       transform="matrix(0.14832866,0,0,0.14832866,4.4632717,3.1391748)"
       style="mix-blend-mode:normal;fill:#d0d0d0;fill-opacity:1;stroke:#000000;stroke-width:0.60676;stroke-miterlimit:4;stroke-dasharray:none;stroke-opacity:1;filter:url(#filter6092)"
       id="use5853-2">
      <title
         id="title6040-0">First Aid</title>
      <path
         id="path6042-2"
         style="fill:#d0d0d0;fill-opacity:1;stroke:#000000;stroke-width:0.60676;stroke-miterlimit:4;stroke-dasharray:none;stroke-opacity:1"
         d="m 11.641667,3.4395833 v 3.96875 h 3.96875 v 4.2333337 h -3.96875 v 3.96875 H 7.4083333 v -3.96875 h -3.96875 V 7.4083333 h 3.96875 v -3.96875 z" />
    </g>
    <g
       id="use5853"
       style="mix-blend-mode:normal;fill:url(#linearGradient6020);fill-opacity:1;stroke:#000000;stroke-width:0.606766;stroke-miterlimit:4;stroke-dasharray:none;stroke-opacity:1"
       transform="matrix(0.14832866,0,0,0.14832866,4.3695119,3.0454147)">
      <title
         id="title6040">First Aid</title>
      <path
         d="m 11.641667,3.4395833 v 3.96875 h 3.96875 v 4.2333337 h -3.96875 v 3.96875 H 7.4083333 v -3.96875 h -3.96875 V 7.4083333 h 3.96875 v -3.96875 z"
         style="fill:url(#linearGradient1317);stroke:#000000;stroke-width:0.606766;stroke-miterlimit:4;stroke-dasharray:none;stroke-opacity:1"
         id="path6042" />
    </g>
    <text
       transform="matrix(0.00289675,0.41485631,-1.6795146,7.1552448e-4,-0.46946446,-7.6039051)"
       style="font-size:3.52778px;line-height:1.25;font-family:sans-serif;-inkscape-font-specification:'sans-serif, Normal';white-space:pre;shape-inside:url(#rect1324);stroke-width:1.19801;"
       id="text1322"
       xml:space="preserve"><tspan
         x="19.736328"
         y="-1.6525931"><tspan
           style="font-style:normal;font-variant:normal;font-weight:normal;font-stretch:normal;font-family:'High Tower Text';-inkscape-font-specification:'High Tower Text'">{</tspan></tspan></text>
  </g>
</svg>
