<?xml version="1.0" encoding="UTF-8" standalone="no"?>
<svg
   xmlns:osb="http://www.openswatchbook.org/uri/2009/osb"
   xmlns:dc="http://purl.org/dc/elements/1.1/"
   xmlns:cc="http://creativecommons.org/ns#"
   xmlns:rdf="http://www.w3.org/1999/02/22-rdf-syntax-ns#"
   xmlns:svg="http://www.w3.org/2000/svg"
   xmlns="http://www.w3.org/2000/svg"
   xmlns:xlink="http://www.w3.org/1999/xlink"
   xmlns:sodipodi="http://sodipodi.sourceforge.net/DTD/sodipodi-0.dtd"
   xmlns:inkscape="http://www.inkscape.org/namespaces/inkscape"
   width="5.6618609mm"
   height="5.2062693mm"
   viewBox="0 0 5.6618609 5.2062693"
   version="1.1"
   id="svg8"
   inkscape:version="1.0 (4035a4fb49, 2020-05-01)"
   sodipodi:docname="remove_node.svg">
  <defs
     id="defs2">
    <linearGradient
       inkscape:collect="always"
       id="Minus">
      <stop
         id="stop894"
         offset="0"
         style="stop-color:#660301;stop-opacity:1" />
      <stop
         id="stop896"
         offset="1"
         style="stop-color:#f4724c;stop-opacity:1" />
    </linearGradient>
    <linearGradient
       osb:paint="gradient"
       id="linearGradient5900">
      <stop
         style="stop-color:#00ff00;stop-opacity:1;"
         offset="0"
         id="stop5906" />
      <stop
         style="stop-color:#00ff00;stop-opacity:0;"
         offset="1"
         id="stop5908" />
    </linearGradient>
    <marker
       inkscape:stockid="Arrow2Mend"
       orient="auto"
       refY="0"
       refX="0"
       id="Arrow2Mend"
       style="overflow:visible"
       inkscape:isstock="true">
      <path
         id="path870"
         style="fill:#000000;fill-opacity:1;fill-rule:evenodd;stroke:#000000;stroke-width:0.625;stroke-linejoin:round;stroke-opacity:1"
         d="M 8.7185878,4.0337352 -2.2072895,0.01601326 8.7185884,-4.0017078 c -1.7454984,2.3720609 -1.7354408,5.6174519 -6e-7,8.035443 z"
         transform="scale(-0.6)" />
    </marker>
    <marker
       inkscape:stockid="Arrow1Mend"
       orient="auto"
       refY="0"
       refX="0"
       id="marker1266"
       style="overflow:visible"
       inkscape:isstock="true">
      <path
         id="path1264"
         d="M 0,0 5,-5 -12.5,0 5,5 Z"
         style="fill:#000000;fill-opacity:1;fill-rule:evenodd;stroke:#000000;stroke-width:1pt;stroke-opacity:1"
         transform="matrix(-0.4,0,0,-0.4,-4,0)" />
    </marker>
    <marker
       inkscape:stockid="Arrow1Mend"
       orient="auto"
       refY="0"
       refX="0"
       id="Arrow1Mend"
       style="overflow:visible"
       inkscape:isstock="true">
      <path
         id="path852"
         d="M 0,0 5,-5 -12.5,0 5,5 Z"
         style="fill:#000000;fill-opacity:1;fill-rule:evenodd;stroke:#000000;stroke-width:1pt;stroke-opacity:1"
         transform="matrix(-0.4,0,0,-0.4,-4,0)" />
    </marker>
    <marker
       inkscape:stockid="Arrow1Lstart"
       orient="auto"
       refY="0"
       refX="0"
       id="Arrow1Lstart"
       style="overflow:visible"
       inkscape:isstock="true">
      <path
         id="path843"
         d="M 0,0 5,-5 -12.5,0 5,5 Z"
         style="fill:#000000;fill-opacity:1;fill-rule:evenodd;stroke:#000000;stroke-width:1pt;stroke-opacity:1"
         transform="matrix(0.8,0,0,0.8,10,0)" />
    </marker>
    <symbol
       id="FirstAid">
      <title
         id="title3423">First Aid</title>
      <path
         d="m 11.641667,3.4395833 v 3.96875 h 3.96875 v 4.2333337 h -3.96875 v 3.96875 H 7.4083333 v -3.96875 h -3.96875 V 7.4083333 h 3.96875 v -3.96875 z"
         style="stroke:none;stroke-width:1"
         id="path3425" />
    </symbol>
    <linearGradient
       gradientTransform="translate(-0.08389899,0.50471573)"
       gradientUnits="userSpaceOnUse"
       y2="4.3303161"
       x2="6.628016"
       y1="4.3303161"
       x1="4.7327328"
       id="linearGradient910"
       xlink:href="#Minus"
       inkscape:collect="always" />
    <filter
       height="1.6714599"
       y="-0.33572997"
       width="1.2335513"
       x="-0.11677566"
       id="filter988"
       style="color-interpolation-filters:sRGB"
       inkscape:collect="always">
      <feGaussianBlur
         id="feGaussianBlur990"
         stdDeviation="0.087838815"
         inkscape:collect="always" />
    </filter>
  </defs>
  <sodipodi:namedview
     inkscape:snap-global="true"
     id="base"
     pagecolor="#ffffff"
     bordercolor="#666666"
     borderopacity="1.0"
     inkscape:pageopacity="0.0"
     inkscape:pageshadow="2"
     inkscape:zoom="16"
     inkscape:cx="10.633236"
     inkscape:cy="19.184299"
     inkscape:document-units="mm"
     inkscape:current-layer="layer1"
     inkscape:document-rotation="0"
     showgrid="false"
     inkscape:snap-bbox="true"
     inkscape:bbox-nodes="true"
     inkscape:bbox-paths="true"
     inkscape:snap-bbox-edge-midpoints="true"
     inkscape:snap-bbox-midpoints="true"
     inkscape:object-paths="true"
     inkscape:snap-intersection-paths="true"
     inkscape:snap-smooth-nodes="true"
     inkscape:snap-midpoints="true"
     inkscape:snap-object-midpoints="true"
     inkscape:snap-center="true"
     inkscape:snap-text-baseline="true"
     inkscape:snap-page="true"
     inkscape:snap-grids="true"
     inkscape:window-width="3360"
     inkscape:window-height="1780"
     inkscape:window-x="-12"
     inkscape:window-y="872"
     inkscape:window-maximized="1" />
  <metadata
     id="metadata5">
    <rdf:RDF>
      <cc:Work
         rdf:about="">
        <dc:format>image/svg+xml</dc:format>
        <dc:type
           rdf:resource="http://purl.org/dc/dcmitype/StillImage" />
        <dc:title />
      </cc:Work>
    </rdf:RDF>
  </metadata>
  <g
     inkscape:label="Layer 1"
     inkscape:groupmode="layer"
     id="layer1"
     transform="translate(-1.1218704,-0.22772141)">
    <rect
       style="fill:#d0d0d0;fill-opacity:1;stroke:#000000;stroke-width:0.0899999;stroke-linecap:round;filter:url(#filter988);stop-color:#000000"
       id="rect902-3"
       width="1.8052834"
       height="0.62792474"
       x="4.7676349"
       y="4.595253" />
    <path
       id="path291-5"
       d="m 5.9730633,2.2233128 c 0,-1.102306 -0.8936963,-1.99559152 -1.9952643,-1.99559152 -1.0868379,0 -1.9690755,0.86914402 -1.9936261,1.95000712 -9.289e-4,-2.438e-4 -0.00155,-2.438e-4 -0.00241,-2.438e-4 0,0.00979 9.289e-4,0.019638 9.289e-4,0.029377 0,0.00545 -9.289e-4,0.01091 -9.289e-4,0.016461 0,0.019895 0.00241,0.038955 0.00321,0.058593 0.022077,1.2966767 1.4878562,2.6650463 1.9928095,3.1520751 1.4166526,-1.1487904 1.8291263,-2.2143491 1.9486129,-2.782484 0.00401,-0.019895 0.00818,-0.039773 0.011391,-0.059668 0.011391,-0.061224 0.019638,-0.1159665 0.025366,-0.1630253 0,-6.226e-4 0,-0.00124 0,-0.00193 0.01476,-0.131433 0.00979,-0.2037805 0.00979,-0.2037805 z M 5.6874388,2.4376535 c 0,3.129e-4 0,9.274e-4 0,0.00155 -0.00497,0.040511 -0.011391,0.087729 -0.021274,0.1403535 -0.00321,0.017103 -0.00658,0.034286 -0.010589,0.051469 C 5.5532783,3.1203446 5.1980899,4.0382642 3.977852,5.0277115 3.5432824,4.6081174 2.2804876,3.4296181 2.2608464,2.3125836 c 0,-0.016942 -0.00241,-0.033307 -0.00241,-0.050491 0,-0.00465 9.274e-4,-0.00947 9.274e-4,-0.014119 0,-0.00834 -9.274e-4,-0.016862 -9.274e-4,-0.025269 9.274e-4,0 0.00155,0 0.00241,1.636e-4 0.02044,-0.9310147 0.7807541,-1.67960685 1.7170056,-1.67960685 0.9493467,0 1.7186437,0.76954245 1.7186437,1.71889075 0,8.02e-5 0.00401,0.062524 -0.00898,0.1756264 z"
       inkscape:connector-curvature="0"
       style="fill:#241f20;stroke-width:0.264583" />
    <rect
       y="4.5210695"
       x="4.6938338"
       height="0.62792474"
       width="1.8052834"
       id="rect902"
       style="fill:url(#linearGradient910);fill-opacity:1;stroke:#000000;stroke-width:0.0899999;stroke-linecap:round;stop-color:#000000" />
  </g>
</svg>
